<?xml version="1.0" standalone="no"?><!DOCTYPE svg PUBLIC "-//W3C//DTD SVG 1.1//EN" "http://www.w3.org/Graphics/SVG/1.1/DTD/svg11.dtd"><svg class="icon" height="512" viewBox="0 0 1024 1024" version="1.1" xmlns="http://www.w3.org/2000/svg"><path d="M279.734564 511.997953c0-106.632599 71.216995-196.578144 168.654164-224.955448L448.388728 92.846618C245.281891 124.381845 89.796654 299.982212 89.796654 511.99386c0 212.026998 155.485237 387.625318 358.592075 419.159522L448.388728 736.956472C350.951559 708.580191 279.734564 618.634646 279.734564 511.997953zM579.70245 92.857874l0 194.193841c97.452519 28.387537 168.655188 118.324896 168.655188 224.946238 0 106.625436-71.202669 196.562794-168.655188 224.949308L579.70245 931.140079C782.84715 899.577223 938.294524 723.993229 938.294524 511.99386 938.294524 300.004725 782.84715 124.419707 579.70245 92.857874zM641.933793 511.998977c0 70.64292-57.259098 127.875412-127.903042 127.875412-70.614268 0-127.872343-57.233516-127.872343-127.875412 0-70.63985 57.259098-127.873366 127.872343-127.873366C584.674695 384.124588 641.933793 441.358103 641.933793 511.998977z" /></svg>